,
Brought to you by  http://www.scenetime.com/signup.php
 
 Hottest scene tracker on the net !!!   
 
No fake torrents from scenebalance 
shame on those who comment fake before downloading my torrents

    seed back for speed


 



...................................NFO:.................................................[img]http://img855.imageshack.us/img855/2233/driveangrybr.jpg[/img]

[color=blue][size=5][b]Drive.Angry.2011.BDRip.XVID.AC3.HQ.Hive-CM8[/b][/size][/color]


[b]Thx Hive

CM8 Doing It Right The First Time :D

Source Bluray

Video: 720x400 @bitrate 1800 2pass
Audio: DTS to AC3 5.1 @448
Sample: yes included
Subs: yes english in srt /subs[/b]


[url]http://www.imdb.com/title/tt1502404/[/url]


General
Complete name                    : Drive.Angry.2011.BDRip.XVID.AC3.HQ.Hive-CM8.avi
Format                           : AVI
Format/Info                      : Audio Video Interleave
File size                        : 1.65 GiB
Duration                         : 1h 44mn
Overall bit rate                 : 2 257 Kbps
Writing application              : Nandub v1.0rc2
Writing library                  : Nandub build 1853/release

Video
ID                               : 0
Format                           : MPEG-4 Visual
Format profile                   : Advanced Simple@L5
Format settings, BVOP            : 2
Format settings, QPel            : Yes
Format settings, GMC             : No warppoints
Format settings, Matrix          : Default (H.263)
Muxing mode                      : Packed bitstream
Codec ID                         : XVID
Codec ID/Hint                    : XviD
Duration                         : 1h 44mn
Bit rate                         : 1 799 Kbps
Width                            : 720 pixels
Height                           : 400 pixels
Display aspect ratio             : 16:9
Frame rate                       : 23.976 fps
Color space                      : YUV
Chroma subsampling               : 4:2:0
Bit depth                        : 8 bits
Scan type                        : Progressive
Compression mode                 : Lossy
Bits/(Pixel*Frame)               : 0.261
Stream size                      : 1.31 GiB (80%)
Writing library                  : XviD 1.2.1 (UTC 2008-12-04)

Audio
ID                               : 1
Format                           : AC-3
Format/Info                      : Audio Coding 3
Mode extension                   : CM (complete main)
Codec ID                         : 2000
Duration                         : 1h 44mn
Bit rate mode                    : Constant
Bit rate                         : 448 Kbps
Channel(s)                       : 6 channels
Channel positions                : Front: L C R, Side: L R, LFE
Sampling rate                    : 48.0 KHz
Bit depth                        : 16 bits
Compression mode                 : Lossy
Stream size                      : 335 MiB (20%)
Alignment                        : Split accross interleaves
Interleave, duration             : 42 ms (1.00 video frame)
Interleave, preload duration     : 500 ms



Nicolas Cage	 ... 	Milton
Amber Heard	... 	Piper
William Fichtner	... 	The Accountant
Billy Burke	... 	Jonah King
David Morse	... 	Webster
Todd Farmer	... 	Frank


A vengeful father escapes from hell and chases after the men who killed 
his daughter and kidnapped his granddaughter. 
 


[img]http://img135.imageshack.us/img135/9084/10565579.png[/img]
[img]http://img90.imageshack.us/img90/9485/ddrrdr.png[/img]
[img]http://img135.imageshack.us/img135/3994/drdr.png[/img]
[img]http://img827.imageshack.us/img827/8597/ddrrddrr.png[/img]
[img]http://img822.imageshack.us/img822/5286/ddrrddrdrr.png[/img]
[img]http://img716.imageshack.us/img716/4172/ddrrddrddrrdrr.png[/img]
[img]http://img818.imageshack.us/img818/6122/ddrrddrdrdrr.png[/img]
[img]http://img846.imageshack.us/img846/2870/ddrrddrdrddrrdrr.png[/img]
[img]http://img27.imageshack.us/img27/8511/ddrrddrdrdrddrrdrr.png[/img]





Greetz

ViSiON,LUSi,SANTi,MAGNET,THC,T0XiCiNK,LKRG,IMAGiNE,WBZ,FLAWL3SS,NOVA
Vik,OneTwo,Rapeseed,D2U,SAFC,goldadvance,MEMORY100,KaN1vE,Unevano,Mr Hive
and all P2P groups 
Great Work Guys :D

CM8@hushmail.com